<?xml version="1.0" encoding="utf-8"?>
<svg viewBox="196.277 109.3083 169.334 169.334" xmlns="http://www.w3.org/2000/svg">
  <g transform="matrix(1, 0, 0, 1, 194.24504378803138, 107.27627723330671)">
    <circle cx="86.699" cy="86.699" r="84.667" fill="#FE6052" data-original="#db4437" opacity="1"/>
    <g fill="#FFFFFF">
      <path d="m122.819 67.955-6.586 66.354c-.376 3.783-3.256 6.818-7.059 6.818H64.223c-3.802 0-6.683-3.033-7.058-6.818l-6.587-66.354zM71.052 81.06a3.538 3.538 0 0 1 3.334-3.718 3.538 3.538 0 0 1 3.719 3.333l2.275 41.735a3.476 3.476 0 0 1-2.12 3.432c-1.381.599-2.912.291-3.954-.796a3.515 3.515 0 0 1-.978-2.247l-2.276-41.74zm27.96-3.718a3.549 3.549 0 0 1 3.333 3.718l-2.275 41.734a3.476 3.476 0 0 1-2.479 3.18 3.476 3.476 0 0 1-3.844-1.216 3.516 3.516 0 0 1-.73-2.344l2.276-41.739a3.538 3.538 0 0 1 3.718-3.333z" fill="#FFFFFF" data-original="#ffffff"/>
      <rect width="86.35" height="12.415" x="43.524" y="53.122" rx="6.207" fill="#FFFFFF" data-original="#ffffff"/>
      <path d="M108.151 53.726h-6.18v-7.94c0-4.035-3.3-7.336-7.335-7.336H78.762c-4.035 0-7.336 3.3-7.336 7.336v7.94h-6.18v-7.94c0-7.446 6.07-13.516 13.515-13.516h15.875c7.445 0 13.515 6.07 13.515 13.515z" fill="#FFFFFF" data-original="#ffffff"/>
    </g>
  </g>
</svg>