<?xml version="1.0" encoding="utf-8"?>
<svg viewBox="611.6978 264.5008 21.5 21.5" xmlns="http://www.w3.org/2000/svg">
  <g transform="matrix(0.9999999999999999, 0, 0, 0.9999999999999999, 610.4477630026303, 263.2507668621952)">
    <g data-name="Layer 2">
      <circle cx="12" cy="12" r="10.75" fill="#FF6174" data-original="#ff6174"/>
      <g fill="#FFFFFF">
        <path d="M9 15.75a.75.75 0 0 1-.53-1.28l6-6a.75.75 0 0 1 1.06 1.06l-6 6a.744.744 0 0 1-.53.22z" fill="#FFFFFF" data-original="#ffffff"/>
        <path d="M15 15.75a.744.744 0 0 1-.53-.22l-6-6a.75.75 0 0 1 1.06-1.06l6 6a.75.75 0 0 1-.53 1.28z" fill="#FFFFFF" data-original="#ffffff"/>
      </g>
    </g>
  </g>
</svg>