<svg xmlns="http://www.w3.org/2000/svg" version="1.1" xmlns:xlink="http://www.w3.org/1999/xlink" xmlns:svgjs="http://svgjs.com/svgjs" width="512" height="512" x="0" y="0" viewBox="0 0 512.001 512.001" style="enable-background:new 0 0 512 512" xml:space="preserve"><g><path d="m498.84 140.45-31.823-31.823 31.823-31.823c5.858-5.859 5.858-15.356 0-21.215L456.41 13.16c-5.853-5.854-15.357-5.857-21.215 0l-31.824 31.823-31.822-31.823c-17.546-17.547-46.098-17.546-63.644 0l-12.413 12.413c-16.626-7.959-37.301-5.128-51.231 8.802L223.045 55.59c-5.854 5.852-5.859 15.357 0 21.215l74.253 74.252-146.24 146.242-74.253-74.253c-5.854-5.854-15.358-5.857-21.215 0L34.376 244.26c-13.829 13.828-16.75 34.488-8.783 51.213l-12.432 12.432c-17.547 17.547-17.547 46.098 0 63.645l31.823 31.823-31.823 31.823c-5.859 5.858-5.859 15.356 0 21.215l42.429 42.43c5.854 5.854 15.358 5.857 21.215 0l31.823-31.823 31.824 31.824c17.546 17.545 46.097 17.545 63.644 0l12.414-12.413c16.626 7.959 37.301 5.128 51.231-8.802l21.216-21.215c5.853-5.854 5.858-15.357 0-21.215l-74.253-74.253 146.24-146.24 74.253 74.253c5.853 5.854 15.358 5.857 21.215 0l21.215-21.215c13.829-13.828 16.75-34.488 8.783-51.213l12.432-12.432c17.545-17.55 17.545-46.1-.002-63.647zm-53.036-95.467 21.215 21.215-21.215 21.216-21.216-21.215 21.216-21.216zM66.198 467.017l-21.215-21.215 21.215-21.215 21.215 21.215-21.215 21.215zm116.682 10.607c-5.848 5.851-15.365 5.849-21.214.001l-127.29-127.29c-5.849-5.848-5.849-15.366 0-21.215l10.607-10.607 148.505 148.504-10.608 10.607zm74.253-31.82-10.608 10.606c-5.864 5.864-15.351 5.864-21.215 0L55.591 286.691c-5.863-5.863-5.863-15.351 0-21.215l10.607-10.607 190.935 190.935zm-63.645-106.076-21.215-21.215 146.24-146.241 21.215 21.215-146.24 146.241zm262.922-93.203-10.607 10.607-116.681-116.68-.001-.001-.001-.001-74.251-74.25 10.607-10.608c5.862-5.862 15.351-5.865 21.215 0l169.72 169.72c5.863 5.861 5.863 15.35-.001 21.213zm21.215-63.645-10.607 10.607L318.513 44.983l10.608-10.607c5.85-5.849 15.364-5.849 21.215 0l127.289 127.289c5.85 5.849 5.85 15.367 0 21.215z" fill="#000000" data-original="#000000"></path></g></svg>