<svg xmlns="http://www.w3.org/2000/svg" version="1.1" xmlns:xlink="http://www.w3.org/1999/xlink" xmlns:svgjs="http://svgjs.com/svgjs" width="512" height="512" x="0" y="0" viewBox="0 0 479.989 479.989" style="enable-background:new 0 0 512 512" xml:space="preserve"><g><path d="M175.683 292.602a7.996 7.996 0 0 1-1.321-8.649c17.196-37.802-1.456-58.957.402-144.368.088-4.055 3.247-7.922 8.309-7.826 4.364.083 7.783 3.793 7.688 8.156-.083 3.797-.12 7.609-.115 11.43.006 4.428 3.621 8.043 8.049 7.983 13.012-.178 38.324-4.463 48.12-33.85l4.872-14.615c9.016-27.048-6.387-56.25-34.09-63.875l-49.822-13.713c-19.849-5.463-41.342 2.022-53.491 18.624C56.018 131.516 17.334 223.079.906 320.066c-4.515 26.651 8.151 53.541 31.52 66.911 131.212 75.074 286.795 82.348 427.763 16.669 12.029-5.604 19.802-17.814 19.802-31.106V229.58c0-11.401-5.615-22.013-15.021-28.387-50.573-34.276-114.972-30.171-158.109 15.34-3.845 4.056-2.388 10.706 2.769 12.862 19.488 8.148 37.912 19.987 53.289 33.969a8 8 0 0 1 .258 11.616 7.992 7.992 0 0 1-11.003.265c-40.293-36.387-94.766-52.941-148.958-35.627-3.324 1.062-5.551 4.208-5.496 7.697.227 14.512-2.196 28.565-8.819 43.285-2.362 5.247-9.377 6.284-13.218 2.002z" fill="#000000" data-original="#000000"></path></g></svg>