<?xml version="1.0" encoding="utf-8"?>
<svg viewBox="580.5122 275.3609 20 20" xmlns="http://www.w3.org/2000/svg">
  <g transform="matrix(0.9999999999999999, 0, 0, 0.9999999999999999, 578.5122156517536, 273.3609049523011)">
    <g>
      <path fill="#02BC7D" d="M12 2C6.5 2 2 6.5 2 12s4.5 10 10 10 10-4.5 10-10S17.5 2 12 2zm4.3 7.6-4.6 6c-.2.2-.5.4-.8.4s-.6-.1-.8-.4l-2.4-3.1c-.3-.4-.3-1.1.2-1.4s1.1-.3 1.4.2l1.6 2.1 3.8-5c.3-.4 1-.5 1.4-.2.5.3.5.9.2 1.4z" data-original="#02bc7d"/>
    </g>
  </g>
</svg>