<svg xmlns="http://www.w3.org/2000/svg" version="1.1" xmlns:xlink="http://www.w3.org/1999/xlink" xmlns:svgjs="http://svgjs.com/svgjs" width="512" height="512" x="0" y="0" viewBox="0 0 256 256" style="enable-background:new 0 0 512 512" xml:space="preserve"><g><path d="M241.333 147.604a19.08 19.08 0 0 0 1.635-8.899l-.323-5.49a16.832 16.832 0 0 0-7.43-12.953 19.108 19.108 0 0 0-14.497-2.774c-.425.09-.897.194-1.413.311-17.781 4.023-34.792 10.973-50.557 20.655l-5.915 3.633-1.41-28.747a31.987 31.987 0 0 0-4.596-14.756l-7.667-12.596a27.802 27.802 0 0 1-3.306-8.037c-2.572-10.802-10.741-19.609-21.319-22.985l-19.66-6.274a23.952 23.952 0 0 0-9.86-.97C84.78 37.786 73.278 26.959 71.2 25.4 70.915 25.186 42.334 4 37 4h-9.057c-3.531 0-6.688 2.366-7.679 5.755C18.298 16.48 15 28.964 15 37c0 9.987-.84 32.71-.979 36.411l-3.423 5.705a14.032 14.032 0 0 0-1.786 9.658l1.492 8.452a14.096 14.096 0 0 0 4.496 8.049l1.792 1.593a7.22 7.22 0 0 0 6.409 1.663v109.875a42.87 42.87 0 0 0 4.501 19.069 15.337 15.337 0 0 0 13.793 8.524h1.11a42.6 42.6 0 0 0 13.574-2.222c1.64-.636 40.247-15.633 48.697-20.807l36.19-22.157 23.089-8.209a74.837 74.837 0 0 0 30.896-20.869l4.783-5.407c-5.171 17.931-8.012 45.464-8.376 49.14L180.3 239.21a9.722 9.722 0 0 0-.835 5.146 9.706 9.706 0 0 0 9.657 8.644h48.162a4.938 4.938 0 0 0 4.932-4.932 4.942 4.942 0 0 0-3.216-4.623c-13.558-5.004-28.976-13.543-27.807-21.142 1.322-8.594 16.436-44.222 30.14-74.699zm-120.893-12.6a22.924 22.924 0 0 0-.219-1.66l-.614-3.528a51.24 51.24 0 0 0-1.03-4.605c4.679-1.24 16.199-4.307 19.752-5.378 3.552-1.073 14.04-6.478 18.8-8.974.14.893.249 1.791.3 2.693l.957 19.518-6.698-2.131a35.078 35.078 0 0 0-25.03 1.424zm-93.409-28.918a7.293 7.293 0 0 0 1.616-5.696l-.714-5.001.213.244a4.385 4.385 0 0 0 4.395 1.365l1.691 6.483a36.704 36.704 0 0 0 6.674 13.466l5.53 7.05c.037.047.076.093.117.137a3.98 3.98 0 0 1-.084 5.569l-5.174 5.174c-.889.889-1.311 2.162-1.115 3.491l8.528 44.776c.064.444.118.89.162 1.336.122 1.255.128 2.655.021 4.405l-.849 13.789L27 212.228V106.12l.031-.034zm25.821 78.008a30.902 30.902 0 0 0-.199-1.612l-8.529-44.777 5.174-5.174a7.961 7.961 0 0 0 .235-11.069l-5.479-6.983a32.72 32.72 0 0 1-5.952-12.007l-2.339-8.968a4.375 4.375 0 0 0-.064-1.894l-.376-1.411c2.558 1.995 5.325 3.551 8.165 4.585-1.369 7.164 2.279 14.421 8.906 17.101a15.261 15.261 0 0 0 5.727 1.122c2.021 0 4.042-.407 5.96-1.221a15.166 15.166 0 0 0 8.193-8.333c1.93-4.771 1.761-9.817-.35-13.672 1.845-1.361 3.481-2.908 4.817-4.614l.079-.103c1.866 3.207 4.467 6.001 7.683 8.068l13.893 8.931a25.96 25.96 0 0 1 4.311 3.475 46.352 46.352 0 0 1 12.959 24.966l.614 3.528a18.588 18.588 0 0 1-.282 7.733 18.606 18.606 0 0 1-1.441 3.836c-3.612 1.716-8.956 4.971-14.971 10.987-4.002 4.002-6.958 9.312-8.782 15.78-2.094 7.423-6.766 13.833-13.154 18.049L51.752 207.51l1.132-18.377c.12-1.968.11-3.569-.032-5.039zm21.073-115.62-.202 1.612c-.012.095-.014.19-.025.285-20.425-1.188-36.834-12.67-41.483-16.251 3.903-5.693 8.893-12.204 8.95-12.278a2 2 0 0 0 .196-.31l2.037-3.999 31.147 27.871c-.267 1.019-.491 2.044-.62 3.07zm-36.046-28.92c-.508.664-2.55 3.345-4.918 6.596.553-2.101 1.163-3.925 1.828-5.255 1.358-2.718 2.887-5.178 4.293-7.222l1.232 1.102zm-7.21 18.436c5.952 4.472 22.301 15.237 42.928 16.38a23.92 23.92 0 0 0 1.325 6.578 81.835 81.835 0 0 1-1.329 1.75c-5.824 7.438-18.819 11.482-27.813 8.661-4.514-1.417-8.901-4.45-12.426-8.549l-1.42-5.326a1.972 1.972 0 0 0-.144-.379l-2.747-5.493c.159-1.758.707-7.449 1.626-13.622zm37.897 43.961a11.189 11.189 0 0 1-6.047 6.15 11.181 11.181 0 0 1-8.625.072c-4.756-1.923-7.397-7.121-6.534-12.339a26.85 26.85 0 0 0 4.739.425c5.568 0 11.458-1.576 16.429-4.322 1.425 2.782 1.477 6.457.038 10.014zm35.092-49.45 19.661 6.274c9.25 2.952 16.394 10.654 18.643 20.101a31.808 31.808 0 0 0 3.781 9.191l7.667 12.596a27.968 27.968 0 0 1 2.788 6.165c-5.288 2.787-15.872 8.221-19.025 9.174-3.49 1.053-15.26 4.186-19.794 5.387a50.318 50.318 0 0 0-11.843-18.682 30.01 30.01 0 0 0-4.976-4.012l-13.893-8.931c-6.395-4.109-9.917-11.64-8.974-19.183l.202-1.612c.013-.1.038-.201.052-.301l11.194 11.853a13.245 13.245 0 0 0 12.561 3.798l1.144-.265a13.222 13.222 0 0 0 9.213-7.782 13.205 13.205 0 0 0-2.572-14.119c-2.304-2.446-6.118-6.263-10.472-10.532 1.58.11 3.143.401 4.643.88zm-81.98 52.198a3.257 3.257 0 0 1-2.43-.821l-1.792-1.593a10.07 10.07 0 0 1-3.214-5.754l-1.492-8.452c-.42-2.38.033-4.832 1.276-6.904l3.688-6.146c.173-.289.271-.616.284-.952C18.008 73.816 19 47.912 19 37c0-7.538 3.197-19.603 5.103-26.122A4.023 4.023 0 0 1 27.943 8l9.021-.001C40.232 8.322 61.021 22.766 68.8 28.6c2.8 2.101 29.412 27.419 37.776 36.296a9.203 9.203 0 0 1 1.791 9.838 9.218 9.218 0 0 1-6.421 5.424l-1.143.264a9.227 9.227 0 0 1-8.753-2.646L79.454 64.439a1.904 1.904 0 0 0-.121-.117L41.457 30.43c1.375-1.766 2.323-2.796 2.345-2.82l-2.933-2.72c-.226.243-5.577 6.054-9.658 14.216-4.125 8.25-6.121 31.732-6.204 32.729-.03.365.04.732.204 1.061l2.909 5.817 3.714 13.927a.388.388 0 0 1-.029.278.377.377 0 0 1-.301.214.366.366 0 0 1-.347-.132l-4.652-5.316a2 2 0 0 0-3.485 1.601l1.667 11.673a3.289 3.289 0 0 1-3.009 3.741zm170.177 64.387a70.81 70.81 0 0 1-29.239 19.75l-23.286 8.279a2.015 2.015 0 0 0-.375.179l-36.368 22.266c-8.146 4.988-47.657 20.335-47.964 20.457A38.55 38.55 0 0 1 42.405 242h-1.11a11.357 11.357 0 0 1-10.215-6.313 38.836 38.836 0 0 1-4.08-17.28v-1.785l20.763-9.428-.189 3.071-7.676 5.066 2.203 3.338 37.751-24.916c7.189-4.744 12.446-11.954 14.801-20.301 1.637-5.802 4.248-10.525 7.761-14.038 2.447-2.447 4.759-4.392 6.866-5.946l-2.406 3.408c-.261.37-.529.799-.798 1.276-3.131 5.578-3.66 12.37-1.449 18.634l.487 1.379 3.771-1.332-.487-1.379c-1.827-5.177-1.402-10.77 1.165-15.343.201-.358.396-.671.578-.929l6.262-8.87a22.616 22.616 0 0 0 3.475-7.58c.281-1.123.472-2.255.579-3.391l7.802-3.316a31.073 31.073 0 0 1 22.214-1.276l8.12 2.584.35 7.14-15.991 9.822 2.094 3.408 25.794-15.843c15.391-9.452 31.993-16.236 49.343-20.162a146.8 146.8 0 0 1 1.364-.3 15.104 15.104 0 0 1 11.448 2.19 12.813 12.813 0 0 1 5.655 9.859l.323 5.49a15.05 15.05 0 0 1-1.29 7.024c-.85 1.89-1.947 4.34-3.217 7.195l-27.904 5.603c.691-1.433 1.404-2.606 2.139-3.423 8.833-9.815 11.898-12.895 11.928-12.924l-2.829-2.828c-.124.124-3.14 3.151-12.073 13.076-.726.806-1.424 1.859-2.097 3.11zm45.76 78.111a.933.933 0 0 1-.331 1.803h-48.162a5.712 5.712 0 0 1-5.682-5.085 5.724 5.724 0 0 1 .491-3.028l11.1-24.049a2.02 2.02 0 0 0 .175-.646c1.101-11.453 4.601-38.641 9.565-52.991l27.71-5.564c-9.095 20.588-23.832 54.883-25.243 64.059-1.876 12.206 20.618 21.901 30.377 25.501z" fill="#000000" data-original="#000000"></path></g></svg>