<svg xmlns="http://www.w3.org/2000/svg" version="1.1" xmlns:xlink="http://www.w3.org/1999/xlink" xmlns:svgjs="http://svgjs.com/svgjs" width="512" height="512" x="0" y="0" viewBox="0 0 310.071 310.071" style="enable-background:new 0 0 512 512" xml:space="preserve"><g><path d="M289.85 242.064c2.787-8.867-2.143-18.313-11.009-21.099-39.576-12.437-56.382-83.311-60.322-109.447-.577-3.701-2.488-7.291-2.488-7.291-7.268-13.829-34.778-20.282-37.874-20.655-5.561-.669-6.268-4.922-6.502-6.368 9.715-6.757 16.275-23.071 16.275-37.805C187.929 17.64 185.632 0 155.987 0h-2.318c-29.646 0-31.942 17.64-31.942 39.399 0 14.734 6.56 31.048 16.274 37.805-.234 1.446-1.157 5.771-6.502 6.368-3.332.374-34.913 7.827-39.159 23.919 0 0-.522 2.301-.838 4.092-.042.241-3.314 24.547-13.105 50.949-8.352 22.52-23.314 50.938-47.166 58.433-8.867 2.786-13.795 12.233-11.009 21.1 2.24 7.126 8.782 11.702 15.866 11.78-14.184 8.157-16.26 19.53-16.26 25.424 0 2.342 1.211 9.958 6.745 16.975 4.968 6.308 14.873 13.827 33.832 13.827 2.845 0 5.853-.17 8.943-.502 12.611-1.356 25.328-3.393 37.623-5.362 4.463-.715 8.922-1.428 13.388-2.112 5.947-.914 16.67-1.518 31.864-1.797h5.209c15.194.279 25.917.884 31.864 1.797 4.466.684 8.925 1.397 13.388 2.112 12.295 1.969 25.012 4.006 37.623 5.362 3.091.332 6.099.502 8.943.502 18.959 0 28.864-7.52 33.832-13.827 5.534-7.017 6.745-14.633 6.745-16.975 0-5.895-2.076-17.269-16.263-25.426.079.001.158.009.236.009 7.155 0 13.791-4.601 16.05-11.788zm-196.615-2.13c-8.536 2.656-10.496 2.935-17.798 3.972-2.376.335-5.297.751-9.166 1.348-3.789.403-7.263.944-10.465 1.594 21.947-12.126 39.648-35.243 52.767-68.989a196.39 196.39 0 0 1 1.185 21.778c0 25.978-13.158 39.249-16.523 40.297zm150.149 5.32c-3.869-.597-6.785-1.056-9.166-1.348-22.996-2.832-34.321-18.29-34.321-44.268 0-8.303.49-15.829 1.278-22.625 13.199 34.328 31.091 57.781 53.333 69.971-3.382-.712-7.074-1.299-11.124-1.73z" fill="#000000" data-original="#000000"></path></g></svg>