<?xml version="1.0" encoding="utf-8"?>
<svg viewBox="0 0 500 500" width="500" height="500" xmlns="http://www.w3.org/2000/svg">
  <ellipse style="fill: rgb(255, 255, 255); stroke: rgb(255, 255, 255);" cx="248.719" cy="245.152" rx="173.155" ry="166.537" transform="matrix(1, 0, 0, 1, 5.684341886080802e-14, 0)"/>
  <path d="M 250.001 0 C 388.071 0 500 111.928 500 250.001 C 500 388.071 388.071 500 250.001 500 C 111.928 500 0 388.071 0 250.001 C 0 111.928 111.928 0 250.001 0 Z M 385.74 165.807 C 375.757 170.271 365.006 173.238 353.779 174.561 C 365.282 167.671 374.078 156.756 378.279 143.758 C 367.527 150.117 355.579 154.78 342.917 157.273 C 332.736 146.458 318.279 139.734 302.26 139.734 C 271.503 139.734 246.604 164.648 246.604 195.385 C 246.604 199.724 247.085 203.968 248.028 208.061 C 201.749 205.714 160.722 183.561 133.258 149.852 C 128.331 158.351 125.725 168.014 125.725 177.843 L 125.725 177.85 C 125.725 197.147 135.522 214.218 150.476 224.171 C 141.351 223.901 132.769 221.357 125.233 217.233 L 125.233 217.929 C 125.233 244.918 144.417 267.438 169.908 272.528 C 165.238 273.795 160.308 274.499 155.228 274.499 C 151.631 274.499 148.166 274.127 144.719 273.501 C 151.837 295.603 172.39 311.717 196.727 312.187 C 177.644 327.138 153.678 336.04 127.547 336.04 C 123.038 336.04 118.645 335.764 114.257 335.239 C 138.956 351.087 168.215 360.265 199.649 360.265 C 302.056 360.265 358.103 275.399 358.103 201.816 C 358.103 199.372 358.048 197.003 357.948 194.608 C 368.823 186.828 378.254 177.008 385.719 165.831 L 385.744 165.806 L 385.74 165.807 Z" fill="#1da1f2" style="" transform="matrix(1, 0, 0, 1, 5.684341886080802e-14, 0)"/>
</svg>