<?xml version="1.0" encoding="utf-8"?>
<svg viewBox="487.9891 221.4 57.2 57.2" xmlns="http://www.w3.org/2000/svg">
  <g transform="matrix(1, 0, 0, 1, 484.58905751390836, 218.00000324845314)">
    <path fill="#FFC048" d="M32 3.4A28.59 28.59 0 0 0 3.4 32 28.59 28.59 0 0 0 32 60.6 28.59 28.59 0 0 0 60.6 32 28.59 28.59 0 0 0 32 3.4zm0 49.2a4.32 4.32 0 1 1 4.31-4.31A4.32 4.32 0 0 1 32 52.6zM37.23 17 35.6 39a.6.6 0 0 1-.6.56h-6a.6.6 0 0 1-.6-.56l-1.63-22a5.24 5.24 0 1 1 10.46 0z" data-name="Layer 35" data-original="#ffc048"/>
  </g>
</svg>